<?xml version="1.0" encoding="utf-8"?>
<!-- Generator: Adobe Illustrator 25.0.0, SVG Export Plug-In . SVG Version: 6.00 Build 0)  -->
<svg version="1.1" id="Calque_1" xmlns="http://www.w3.org/2000/svg" xmlns:xlink="http://www.w3.org/1999/xlink" x="0px" y="0px"
	 viewBox="0 0 488.8 349.7" style="enable-background:new 0 0 488.8 349.7;" xml:space="preserve">
<style type="text/css">
	.st0{fill:#211E1B;}
	.st1{fill:#F6F6F6;}
	.st2{fill:#D2CFD0;}
	.st3{fill:#2A2724;}
	.st4{fill:#F28D5F;}
	.st5{fill:#FEDBA8;}
	.st6{opacity:0.19;fill:#9B9795;}
	.st7{filter:url(#Adobe_OpacityMaskFilter);}
	.st8{filter:url(#Adobe_OpacityMaskFilter_1_);}
	.st9{mask:url(#XMLID_6_);fill:url(#XMLID_7_);}
	.st10{fill:url(#XMLID_8_);}
	.st11{filter:url(#Adobe_OpacityMaskFilter_2_);}
	.st12{filter:url(#Adobe_OpacityMaskFilter_3_);}
	.st13{mask:url(#XMLID_9_);fill:url(#XMLID_10_);}
	.st14{fill:url(#XMLID_11_);}
	.st15{fill:none;}
	.st16{fill:#FFFFFF;}
	.st17{font-family:'Diamor';}
	.st18{font-size:88px;}
</style>
<g>
	<path id="XMLID_156_" class="st0" d="M347.9,333.6l-0.3,13.5l37.2-0.9c-12-12-30.5-4.2-30.7-4.1l-1.3,0.5l-2.5-9.4
		C349.6,333.4,348.7,333.5,347.9,333.6z"/>
	<path id="XMLID_155_" class="st1" d="M301.2,254.3c0.2-0.6,0.3-1.2,0.5-1.8c0.1-0.4,0.2-0.7,0.3-1.1c-5.5,4.9-15.9,14.5-19.9,20.1
		c-5.1,7-4.9,45.9-4.8,52.4c0.3,0.1,0.6,0.3,1,0.4c0.3-8,1.8-45.1,4.6-50.2C285.6,269.2,298.4,256.9,301.2,254.3z"/>
	<path id="XMLID_154_" class="st0" d="M289.9,331l2,9.5l-2.1-0.9c0,0-4.9-2.2-11.1-2.4c-7.4-0.3-13.5,2-18.2,6.8l36.8,0.9l-4.5-13.1
		C291.7,331.5,290.8,331.2,289.9,331z"/>
	<path id="XMLID_153_" class="st2" d="M319.3,300.5c-0.8,0-1.4,0.6-1.4,1.4s0.6,1.4,1.4,1.4c0.8,0,1.4-0.6,1.4-1.4
		S320.1,300.5,319.3,300.5z"/>
	<path id="XMLID_152_" class="st2" d="M287.5,298.5c-0.8,0-1.4,0.6-1.4,1.4c0,0.8,0.6,1.4,1.4,1.4c0.8,0,1.4-0.6,1.4-1.4
		C289,299.2,288.3,298.5,287.5,298.5z"/>
	<path id="XMLID_151_" class="st2" d="M293.2,272.3c-0.8,0-1.4,0.6-1.4,1.4c0,0.8,0.6,1.4,1.4,1.4c0.8,0,1.4-0.6,1.4-1.4
		C294.7,272.9,294,272.3,293.2,272.3z"/>
	<path id="XMLID_140_" class="st1" d="M269.3,213.9c3.5-2.9,7-5.4,10.4-7.5c-4.6-3.4-18.1-13.3-24.5-19.5l-1.2-1
		c-2.2,4.8-9.6,20.5-18.2,27.7c0.5,0.4,1.1,1,1.8,1.6c0.1-0.1,0.3-0.2,0.5-0.4c0.3-0.3,0.8-0.6,1.2-0.9c0.2-0.2,0.5-0.4,0.7-0.6
		c0.3-0.2,0.5-0.4,0.8-0.7c0.6-0.5,1.1-1,1.8-1.6c0.3-0.3,0.6-0.6,0.9-0.9c0.3-0.3,0.6-0.6,0.9-1c0.3-0.3,0.6-0.7,1-1
		c0.3-0.3,0.6-0.7,0.9-1.1c0.3-0.4,0.6-0.7,0.9-1.1c0.3-0.4,0.6-0.8,0.9-1.2c0.6-0.8,1.1-1.6,1.7-2.4c0.1-0.2,0.3-0.4,0.4-0.6
		c0.1-0.2,0.2-0.4,0.4-0.6c0.2-0.4,0.5-0.8,0.7-1.2c0.1-0.2,0.2-0.4,0.4-0.6c0.1-0.2,0.2-0.4,0.3-0.6c0.2-0.4,0.4-0.8,0.6-1.2
		c0.4-0.8,0.7-1.5,1-2.2c0.3-0.7,0.6-1.3,0.8-1.9c0.2-0.6,0.4-1.1,0.5-1.5c0.3-0.8,0.5-1.3,0.5-1.3s-0.1,0.5-0.4,1.3
		c-0.1,0.4-0.3,0.9-0.4,1.5c-0.2,0.6-0.4,1.2-0.7,1.9c-0.3,0.7-0.5,1.5-0.9,2.3c-0.2,0.4-0.3,0.8-0.5,1.2c-0.1,0.2-0.2,0.4-0.3,0.6
		c-0.1,0.2-0.2,0.4-0.3,0.6c-0.2,0.4-0.4,0.9-0.6,1.3c-0.1,0.2-0.2,0.4-0.3,0.7c-0.1,0.2-0.2,0.4-0.4,0.6c-0.5,0.9-1,1.8-1.5,2.6
		c-0.3,0.4-0.6,0.9-0.8,1.3c-0.3,0.4-0.6,0.8-0.9,1.2c-0.3,0.4-0.6,0.8-0.9,1.2c-0.3,0.4-0.6,0.8-0.9,1.1c-0.3,0.4-0.6,0.7-0.9,1.1
		c-0.3,0.3-0.6,0.7-0.9,1c-0.6,0.6-1.2,1.3-1.7,1.8c-0.3,0.3-0.5,0.5-0.8,0.8c-0.3,0.2-0.5,0.5-0.7,0.7c-0.5,0.4-0.9,0.8-1.2,1.1
		c0,0-0.1,0.1-0.1,0.1c3.3,2.7,7.8,6,12,7.9C257.5,222.2,263.7,218.6,269.3,213.9z"/>
	<path id="XMLID_139_" class="st3" d="M308.2,236c8.9-9.8,12.2-20,11.8-23.8c-5.5-1-9.5-3.9-10-7.6c-1.1-0.7-4.4-2.4-9.6-2.4
		c0,0,0,0,0,0c-6.1,0-16.2,2.4-29.6,13.5c-11.3,9.5-25.3,14.7-37.2,14.7c-5.9,0-11.3-1.3-15.6-3.9c-5.1-3.1-10.5-9-11.5-20.2
		c-0.7,8.1-0.1,17.9,4.8,26.6c6.1,10.9,17.6,17.9,34.2,20.9C280.2,260.1,299.7,245.3,308.2,236z"/>
	<path id="XMLID_138_" class="st2" d="M321.3,275c-0.8,0-1.4,0.6-1.4,1.4c0,0.8,0.6,1.4,1.4,1.4c0.8,0,1.4-0.6,1.4-1.4
		C322.7,275.6,322,275,321.3,275z"/>
	<path id="XMLID_137_" class="st4" d="M324.1,197.7c-6.3,0-11.7,2.9-11.7,6.3c0,3.4,5.4,6.3,11.7,6.3c6.3,0,11.7-2.9,11.7-6.3
		C335.8,200.5,330.5,197.7,324.1,197.7z"/>
	<path id="XMLID_136_" class="st2" d="M325.1,258.1C325.1,258.1,325.1,258,325.1,258.1C325.1,258,325.1,258,325.1,258.1
		C325.1,258.1,325.1,258.1,325.1,258.1L325.1,258.1z"/>
	<path id="XMLID_135_" class="st3" d="M439.6,197.5c0.4,3.4,0.2,6.8-0.6,10.1c-1.7,7.3-6.4,14.1-13.3,19.3
		c-14.2,10.7-36.4,13.2-49-1.3c-11.5-13.2-21.6-18.1-28.1-19.8c-5.3-1.4-9.1-1-10.6-0.8c-0.6,3.3-4.1,6-8.9,7.1
		c2.1,4,9.8,18.2,22.2,30.1c19.4,18.6,40.3,23.3,62.3,13.9c16.1-6.9,26-16.6,29.2-28.8C445.7,216.5,443,205.7,439.6,197.5z"/>
	<path id="XMLID_134_" class="st1" d="M463.6,105c-4.2-3.8-11-12.7-19.6-23.9c-20.1-26.2-50.4-65.8-71-69
		c-13.5-2.1-40,0.2-66.2,10.3c-28.9,11.2-47.4,28.3-52.2,48.3c-4.6,19.1,0,36.2,13.7,50.9c8.2,8.9,17.4,14.1,20.7,15.9
		c2.5-14,5.8-27.8,9.9-39.1c-0.3,0-0.6,0-0.9,0c-0.4,0-0.7,0-1.1,0c-0.4,0-0.7,0-1.1,0c-0.4,0-0.7-0.1-1.1-0.1
		c-0.7-0.1-1.4-0.2-2.1-0.2c-1.3-0.2-2.6-0.5-3.8-0.8c-1.2-0.3-2.3-0.7-3.3-1c-2-0.7-3.7-1.5-4.8-2.2c-1.1-0.6-1.7-1-1.7-1
		s0.2,0.1,0.5,0.2c0.3,0.1,0.8,0.3,1.4,0.4c0.6,0.2,1.3,0.4,2.1,0.6c0.8,0.2,1.8,0.4,2.8,0.7c1,0.2,2.1,0.4,3.3,0.6
		c1.2,0.2,2.4,0.3,3.7,0.4c1.3,0.1,2.6,0.2,4,0.2c0.7,0,1.4,0,2.1,0c0.2,0,0.5,0,0.7,0c0-0.1,0-0.1,0.1-0.2l0.4,0.2
		c0.3,0,0.6,0,0.9-0.1c1.4-0.1,2.7-0.3,4.1-0.5c0.3-0.1,0.7-0.1,1-0.2c0.3-0.1,0.7-0.1,1-0.2c0.3-0.1,0.6-0.1,1-0.2
		c0.3-0.1,0.6-0.2,0.9-0.3c0.3-0.1,0.6-0.2,0.9-0.2c0.3-0.1,0.6-0.2,0.9-0.3c0.3-0.1,0.6-0.2,0.9-0.3c0.3-0.1,0.6-0.2,0.9-0.3
		c1.1-0.4,2.2-0.8,3.1-1.2c0.5-0.2,0.9-0.4,1.4-0.6c0.4-0.2,0.9-0.4,1.2-0.6c0.4-0.2,0.7-0.4,1.1-0.5c0.2-0.1,0.3-0.2,0.5-0.2
		c0.1-0.1,0.3-0.2,0.4-0.2c0.5-0.3,1-0.5,1.3-0.7c0.3-0.2,0.5-0.2,0.5-0.2s-0.1,0.1-0.4,0.3c-0.2,0.2-0.6,0.6-1.1,1
		c-0.5,0.4-1.1,0.9-1.8,1.4c-0.3,0.3-0.7,0.5-1.1,0.8c-0.4,0.3-0.8,0.6-1.3,0.9c-0.9,0.5-2,1.1-3.1,1.7c-0.3,0.1-0.6,0.3-0.9,0.4
		c-0.3,0.1-0.6,0.2-0.9,0.4c-0.3,0.1-0.6,0.2-0.9,0.4c-0.3,0.1-0.6,0.2-1,0.3c-0.3,0.1-0.7,0.2-1,0.3c-0.3,0.1-0.7,0.2-1,0.3
		c-0.3,0.1-0.7,0.2-1,0.3c-0.3,0.1-0.7,0.1-1.1,0.2c-1.4,0.3-2.8,0.5-4.2,0.6c-5.7,14.9-9.6,34.5-12.4,52.9
		c3.9-1.7,13.8-5.3,27.2-5.8c10.1-0.3,20.2,1.2,29.8,4.6c11.7,4.1,22.9,11,33.2,20.4c1.6-6.6,3.5-12.5,5.3-17.4
		c4.3-11.8,8.9-20.4,10.5-23.3c-0.4-0.5-0.9-1-1.3-1.4c-0.8-1-1.6-2-2.2-3.1c-0.7-1-1.2-2.1-1.7-3.1c-0.5-1-0.9-2-1.2-2.9
		c-0.3-0.9-0.6-1.8-0.7-2.6c-0.2-0.8-0.3-1.5-0.4-2c0-0.1,0-0.2,0-0.3c-0.1,0-0.2,0-0.2,0c-0.4,0-0.7,0-1.1,0c-0.4,0-0.7,0-1.1,0
		c-0.7,0-1.5,0-2.3,0c-0.4,0-0.8,0-1.2,0c-0.4,0-0.8,0-1.2-0.1c-0.8-0.1-1.6-0.1-2.4-0.2c-0.4,0-0.8-0.1-1.2-0.1l-0.6,0
		c-0.2,0-0.4,0-0.6-0.1c-0.8-0.1-1.6-0.2-2.5-0.3c-0.4-0.1-0.8-0.1-1.2-0.2c-0.4-0.1-0.8-0.1-1.2-0.2c-1.7-0.3-3.4-0.6-5-1
		c-0.8-0.2-1.7-0.4-2.5-0.6l-1.3-0.3l-1.3-0.4c-0.8-0.3-1.7-0.5-2.5-0.8l-0.6-0.2l-0.6-0.2l-1.2-0.4c-0.8-0.3-1.6-0.6-2.5-0.9
		c-0.8-0.3-1.6-0.7-2.4-1l-1.2-0.5c-0.4-0.2-0.8-0.4-1.2-0.6c-0.8-0.4-1.6-0.8-2.3-1.1c-3.1-1.6-6-3.3-8.7-5.2
		c-1.4-0.9-2.7-1.9-3.9-2.8c-0.6-0.5-1.2-1-1.8-1.5c-0.6-0.5-1.2-1-1.8-1.5c-2.3-1.9-4.3-3.9-6.1-5.8c-1.8-1.9-3.4-3.7-4.7-5.4
		c-1.3-1.7-2.4-3.2-3.2-4.4c-0.9-1.3-1.5-2.3-1.9-3c-0.4-0.7-0.6-1.1-0.6-1.1s0.2,0.4,0.7,1c0.5,0.7,1.2,1.6,2.1,2.8
		c0.9,1.2,2.1,2.6,3.5,4.1c0.4,0.4,0.7,0.8,1.1,1.2c0.4,0.4,0.8,0.8,1.2,1.2c0.4,0.4,0.8,0.8,1.3,1.3c0.4,0.4,0.9,0.9,1.4,1.3
		c1,0.9,1.9,1.8,3,2.7c0.5,0.4,1,0.9,1.6,1.4c0.6,0.5,1.1,0.9,1.7,1.4c2.3,1.8,4.8,3.6,7.5,5.4c0.3,0.2,0.7,0.4,1,0.7
		c0.3,0.2,0.7,0.4,1,0.6c0.7,0.4,1.4,0.8,2.1,1.2c0.7,0.4,1.5,0.8,2.2,1.2c0.7,0.4,1.5,0.8,2.2,1.2c0.8,0.4,1.5,0.7,2.3,1.1
		c0.4,0.2,0.8,0.4,1.1,0.5l1.2,0.5c0.8,0.3,1.6,0.7,2.4,1c0.8,0.3,1.6,0.6,2.4,0.9l1.2,0.4l0.6,0.2l0.6,0.2c0.8,0.3,1.6,0.5,2.4,0.8
		l1.2,0.4l1.2,0.3c0.8,0.2,1.6,0.4,2.5,0.6c0.8,0.2,1.6,0.4,2.5,0.5c0.8,0.2,1.6,0.3,2.4,0.5c0.4,0.1,0.8,0.2,1.2,0.2
		c0.4,0.1,0.8,0.1,1.2,0.2c0.8,0.1,1.6,0.2,2.4,0.4c1.6,0.2,3.2,0.3,4.7,0.5c0.4,0,0.8,0.1,1.1,0.1c0.4,0,0.8,0,1.1,0.1
		c0.8,0,1.5,0.1,2.2,0.1c0.4,0,0.7,0,1.1,0.1c0.4,0,0.7,0,1.1,0c0.7,0,1.4,0,2.1,0c0.7,0,1.4,0,2,0c0.3,0,0.7,0,1,0
		c0.3,0,0.7,0,1-0.1c2.6-0.2,4.9-0.2,7-0.5c2.1-0.2,3.9-0.3,5.4-0.6c1.5-0.2,2.7-0.4,3.5-0.5c0.8-0.1,1.2-0.2,1.2-0.2
		s-0.4,0.1-1.2,0.3c-0.8,0.2-1.9,0.5-3.4,0.8c-1.5,0.4-3.3,0.7-5.4,1c-1,0.2-2.2,0.4-3.3,0.5c-1.2,0.1-2.4,0.3-3.7,0.4
		c-0.3,0-0.7,0.1-1,0.1c-0.3,0-0.7,0-1,0.1c-0.7,0-1.4,0.1-2.1,0.1c-0.5,0-1,0-1.5,0.1c0,0.1,0.1,0.2,0.1,0.2
		c0.2,0.5,0.5,1.1,0.8,1.9c0.3,0.7,0.7,1.5,1.1,2.3c0.4,0.8,0.9,1.7,1.5,2.6c0.6,0.9,1.2,1.9,1.9,2.8c0.3,0.5,0.7,0.9,1.1,1.4
		c0.2,0.2,0.4,0.5,0.6,0.7c0.2,0.2,0.4,0.5,0.6,0.7c0.2,0.2,0.4,0.5,0.6,0.7c0.2,0.2,0.4,0.4,0.6,0.7c0.4,0.5,0.9,0.9,1.3,1.3
		c0.4,0.4,0.9,0.8,1.4,1.2c0.5,0.4,1,0.8,1.4,1.2c0.5,0.4,1,0.7,1.5,1.1c0.5,0.3,1,0.7,1.5,1c0.5,0.3,1,0.6,1.5,0.9
		c0.5,0.3,1,0.6,1.4,0.8c0.5,0.3,0.9,0.5,1.4,0.8c0.4,0.2,0.9,0.5,1.3,0.7c0.9,0.4,1.6,0.8,2.3,1.1c0.7,0.3,1.3,0.6,1.8,0.8
		c0.5,0.2,0.9,0.4,1.2,0.5c0.3,0.1,0.4,0.2,0.4,0.2s-0.2,0-0.5-0.1c-0.3,0-0.7-0.1-1.3-0.2c-0.6-0.1-1.2-0.2-2-0.4
		c-0.8-0.2-1.6-0.4-2.6-0.7c-0.5-0.1-0.9-0.3-1.4-0.5c-0.5-0.2-1-0.4-1.5-0.6c-0.5-0.2-1-0.5-1.6-0.7c-0.5-0.3-1.1-0.6-1.6-0.8
		c-0.5-0.3-1.1-0.6-1.6-1c-0.5-0.4-1.1-0.7-1.6-1.1c-0.5-0.4-1-0.8-1.5-1.2c-0.4-0.3-0.8-0.7-1.2-1c-2.1,3.9-7.7,14.7-12.4,29.4
		c47.3,24.1,70.4-2,76.3-10.6c5.3-7.7,8.5-16.8,9-25.6C470.4,116.2,468.1,109,463.6,105z"/>
	<path id="XMLID_128_" class="st1" d="M369.5,257.7c-6.8-3.2-13.4-7.9-19.7-14c-13.4-12.9-21.5-28.3-23-31.3
		c-0.9,0.1-1.8,0.2-2.7,0.2c-0.6,0-1.1,0-1.7-0.1c0.2,5.1-3.6,15.5-12.5,25.1c-6.8,7.4-15.1,12.9-24.8,16.3
		c-2.3,0.8-4.8,1.5-7.2,2.1c-1.1,6.6-6.1,37.9-5.7,65.3c0.6,0.4,1.8,1.1,3.5,1.9c-0.1-8.5-0.1-45.3,5.1-52.6
		c5-6.9,18.8-19.2,22.7-22.6c0.5-0.9,1-1.9,1.6-2.7c1.9-3,4.2-5.6,6.7-8c1.3-1.2,2.5-2.4,3.9-3.5c1.3-1.1,2.7-2.2,4.1-3.2
		c0.7-0.5,1.4-1,2.2-1.4c0.7-0.5,1.5-0.9,2.4-1.2c0.1,0,0.2-0.1,0.4-0.1c0.1,0,0.1,0,0.2,0c0,0,0.1,0,0.1,0l0.1,0c0,0,0.1,0,0.1,0
		l0.1,0c0,0,0.1,0.1,0.1,0.1l0,0c0,0,0,0,0.1,0.1c0.1,0.1,0.1,0.2,0.2,0.2c0.1,0.1,0.1,0.3,0.1,0.4c0.1,0.5,0,1-0.1,1.4
		c-0.2,0.9-0.5,1.7-0.9,2.5c-0.3,0.6-0.6,1.2-0.9,1.8c0.2,0.1,0.4,0.3,0.6,0.4c0.9,0.6,2.3,1.5,3.9,2.6c1.6,1.1,3.5,2.3,5.6,3.5
		c1,0.6,2.1,1.3,3.2,1.9c1.1,0.6,2.2,1.3,3.3,1.9c1.1,0.6,2.2,1.3,3.4,1.9c1.1,0.6,2.2,1.2,3.3,1.7c1.1,0.5,2.1,1.1,3.1,1.5
		c1,0.5,1.9,0.9,2.8,1.3c0.9,0.4,1.7,0.7,2.4,1c0.7,0.3,1.4,0.5,1.9,0.8c1.1,0.4,1.7,0.6,1.7,0.6s-0.6-0.2-1.7-0.5
		c-0.5-0.2-1.2-0.4-1.9-0.6c-0.7-0.3-1.6-0.6-2.5-0.9c-0.9-0.3-1.9-0.7-2.9-1.2c-1-0.4-2.1-0.9-3.2-1.4c-1.1-0.5-2.3-1-3.4-1.5
		c-1.2-0.5-2.3-1.1-3.5-1.7c-1.2-0.6-2.3-1.2-3.5-1.7c-1.1-0.6-2.3-1.2-3.3-1.7c-2.1-1.1-4.1-2.3-5.8-3.2c-1.7-1-3.1-1.8-4.1-2.4
		c-0.2-0.1-0.4-0.3-0.6-0.4c-0.2,0.3-0.3,0.5-0.5,0.8c-0.9,1.3-1.8,2.5-2.8,3.7c0.6,1,1.3,2.1,1.9,3.2c0.7,1.2,1.4,2.5,2,3.7
		c0.7,1.2,1.3,2.5,1.9,3.8c0.6,1.3,1.2,2.6,1.7,4c0.1,0.4,0.2,0.7,0.3,1.1c0.1,0.4,0.2,0.8,0.2,1.3c0,0.3,0,0.5-0.1,0.9
		c-0.1,0.2-0.1,0.4-0.4,0.7l-0.1,0.1l0,0.1l-0.1,0.1c-0.1,0.1-0.2,0.1-0.3,0.2c-0.1,0.1-0.1,0.1-0.2,0.1c-0.1,0.1-0.3,0.1-0.4,0.2
		c-0.3,0.1-0.6,0.1-0.8,0.1c-1,0-1.8-0.3-2.6-0.6c-0.7-0.3-1.4-0.7-2-1.1c-0.9-0.6-1.7-1.3-2.5-2l0.4,1.7c0.2,0.8,0.4,1.6,0.6,2.4
		c0.4,1.6,0.8,3.1,1.1,4.7c0.1,0.3,0.1,0.6,0.2,0.9c0,0,0,0,0,0c0.3,0.1,0.7,0.3,1.2,0.4c1,0.4,2.4,0.9,4.2,1.5c1.7,0.6,3.8,1.3,6,2
		c1.1,0.3,2.2,0.7,3.4,1c1.2,0.3,2.3,0.7,3.5,1c1.2,0.3,2.4,0.6,3.6,0.9c1.2,0.3,2.3,0.6,3.5,0.8c1.1,0.2,2.2,0.5,3.3,0.7
		c1,0.2,2,0.4,2.9,0.5c0.9,0.1,1.8,0.3,2.5,0.4c0.7,0.1,1.4,0.2,1.9,0.2c1.1,0.1,1.7,0.2,1.7,0.2s-0.6,0-1.7-0.1
		c-0.5,0-1.2-0.1-1.9-0.1c-0.8-0.1-1.6-0.2-2.5-0.2c-0.9-0.1-1.9-0.2-3-0.4c-1.1-0.1-2.2-0.3-3.3-0.5c-1.1-0.2-2.3-0.4-3.5-0.6
		c-1.2-0.2-2.4-0.5-3.6-0.7c-1.2-0.2-2.4-0.5-3.6-0.8c-1.2-0.3-2.4-0.5-3.5-0.8c-2.3-0.6-4.4-1.1-6.1-1.6c-1.8-0.5-3.3-0.9-4.3-1.3
		l0,0.2c0,0.1,0,0.2,0,0.4l0,0.4c0,0.3,0,0.5-0.1,0.8c-0.1,0.5-0.4,1.1-0.8,1.5c-0.4,0.4-1,0.7-1.5,0.8c-0.5,0.1-1,0.1-1.5,0
		c-0.5-0.1-0.9-0.2-1.3-0.3c-1.7-0.6-3-1.7-4.2-3c-0.6-0.6-1.1-1.3-1.5-2c-0.4-0.7-0.9-1.4-1.2-2.2c-0.2-0.4-0.4-0.9-0.6-1.3
		c0.1,0.6,0.2,1.2,0.3,1.7c0.1,0.9,0.2,1.7,0.3,2.6c0,0.9,0,1.8-0.3,2.8c0,0.1-0.1,0.2-0.2,0.4l-0.1,0.2l-0.1,0.2
		c-0.1,0.1-0.2,0.2-0.3,0.4c-0.1,0.1-0.1,0.1-0.2,0.1l-0.1,0.1l-0.1,0c0,0,0,0-0.1,0l0,0l-0.2,0c0,0,0,0-0.1,0l-0.1,0
		c-0.1,0-0.2,0-0.3,0c-0.1,0-0.2,0-0.2,0c-0.3,0-0.6-0.1-0.8-0.2c-1-0.4-1.7-1.2-2.3-1.9c-1.1-1.5-1.8-3.3-2.2-5
		c-0.4-1.8-0.5-3.6-0.5-5.4c0-1.1,0.2-2.2,0.3-3.3c-4.4,4.2-14.2,13.9-16.4,18c-2.3,4.2-3.9,36.8-4.4,50.1c4,1.7,9.4,3.5,16.4,5
		c14.9,3.2,40,5.2,74.8-3.1C370.6,319.9,368.7,276.7,369.5,257.7z M287.5,303.8c-2.1,0-3.8-1.7-3.8-3.8c0-2.1,1.7-3.8,3.8-3.8
		c2.1,0,3.8,1.7,3.8,3.8C291.3,302.1,289.6,303.8,287.5,303.8z M293.2,277.5c-2.1,0-3.8-1.7-3.8-3.8c0-2.1,1.7-3.8,3.8-3.8
		c2.1,0,3.8,1.7,3.8,3.8C297,275.8,295.3,277.5,293.2,277.5z M319.3,305.7c-2.1,0-3.8-1.7-3.8-3.8s1.7-3.8,3.8-3.8
		c2.1,0,3.8,1.7,3.8,3.8S321.4,305.7,319.3,305.7z M321.3,280.2c-2.1,0-3.8-1.7-3.8-3.8s1.7-3.8,3.8-3.8c2.1,0,3.8,1.7,3.8,3.8
		S323.3,280.2,321.3,280.2z"/>
	<path id="XMLID_127_" class="st5" d="M253.2,182.4c1.3-2.3,3.2-8,2.4-9.8c-0.1-0.2-0.1-0.2-0.2-0.2c-2,0-4.8,5.4-6.1,9.1l-0.3,1
		l-4.4-0.8c0,0,0,0,0,0c-0.4,0.3-0.9,0.8-1.6,1.5c-1.2,1.2-2.8,2.8-4.4,4.4c-0.8,0.8-1.5,1.7-2.2,2.5c-0.4,0.4-0.7,0.8-1,1.2
		c-0.3,0.4-0.6,0.7-0.9,1.1c-0.3,0.3-0.5,0.6-0.7,0.9c-0.2,0.3-0.4,0.5-0.5,0.7c-0.3,0.4-0.5,0.6-0.5,0.6s0.1-0.2,0.4-0.7
		c0.1-0.2,0.3-0.5,0.4-0.8c0.2-0.3,0.4-0.6,0.6-1c0.2-0.4,0.5-0.8,0.7-1.2c0.3-0.4,0.5-0.9,0.8-1.3c0.6-0.9,1.2-1.8,1.9-2.8
		c1.3-1.9,2.7-3.7,3.8-5c0.5-0.7,1-1.2,1.3-1.6c0-0.1,0.1-0.1,0.1-0.1c-0.4-2.8-1.8-8.8-4.1-10.3c-0.5-0.3-1.1-0.4-1.7-0.2
		c-0.5,0.2-0.9,0.6-1.2,1.2c-0.9,2-0.7,5.7,0.4,8.9c0.6,1.8,1.1,3.4,1.3,4.4c0.2,0.6-0.3,1.2-0.9,1.2c-0.3,0-0.5-0.1-0.6-0.5
		c-0.7-1.5-1.2-2.3-2.1-4.5c-0.9-2.1-1.9-3.8-3-4.3c-0.3-0.1-0.7-0.2-1.3,0.2c-3,1.9-0.2,9.8,1.5,13.8l0,0c0.2,0.5,0.1,1.1-0.4,1.3
		c-0.8,0.3-1.5-0.4-1.7-0.8c-1.6-3.2-2.8-3.1-3-3.1c-0.1,0-0.3,0-0.4,0.1c0,11,8.8,20.2,10.7,22.1
		C245.1,200.7,253.2,182.4,253.2,182.4z"/>
	<path id="XMLID_126_" class="st5" d="M304.5,250.7c-0.6,1.6-1.1,3.2-1.4,4.8c-0.4,1.6-0.7,3.3-0.7,4.9c-0.1,1.6,0,3.3,0.3,4.9
		c0.1,0.8,0.4,1.6,0.6,2.3c0.3,0.7,0.6,1.5,1,2.1c0.4,0.6,1,1.2,1.5,1.5c0.1,0.1,0.3,0.1,0.4,0.1l0.1,0c0,0,0,0,0,0l0,0
		c0,0,0,0,0.1,0l0.1,0l0,0c0,0,0,0,0.1,0c0,0,0.1,0,0.1-0.1l0.1-0.1l0.1-0.1c0-0.1,0.1-0.1,0.1-0.2c0.3-0.6,0.4-1.5,0.4-2.3
		c0-0.8,0-1.7,0-2.5c-0.1-1.7-0.3-3.4-0.5-5.1l-0.1-1l0.8,2.1c0.2,0.4,0.3,0.7,0.5,1.1c0.3,0.7,0.7,1.4,1.1,2.1
		c0.4,0.7,0.9,1.3,1.4,1.9c0.5,0.6,1,1.2,1.6,1.7c0.6,0.5,1.2,1,1.8,1.4c0.6,0.4,1.3,0.7,2,0.9c0.7,0.2,1.4,0.3,1.9,0.1
		c0.3-0.1,0.5-0.2,0.6-0.4c0.1-0.2,0.2-0.4,0.3-0.6c0-0.1,0-0.3,0-0.4l0-0.2c0-0.1,0-0.1,0-0.2l-0.1-0.3l0-0.1l0,0l0,0l0,0
		c0,0,0-0.1,0,0l0-0.1l-0.1-0.6c-0.2-0.8-0.4-1.5-0.6-2.3c-0.4-1.5-0.8-3.1-1.3-4.6c-0.9-3.1-1.8-6.2-2.7-9.3l-2.4-7.8l4.6,6.8
		c0.7,1.1,1.6,2.1,2.5,3.1c0.9,0.9,1.9,1.8,3,2.5c0.5,0.4,1.1,0.7,1.6,0.9c0.5,0.2,1.1,0.4,1.5,0.4c0.1,0,0.2,0,0.2,0c0,0,0,0,0,0
		c0,0,0,0,0,0c0-0.2,0-0.5-0.1-0.8c-0.1-0.3-0.2-0.6-0.2-0.9c-0.4-1.3-0.9-2.5-1.5-3.8c-0.6-1.3-1.1-2.5-1.8-3.8
		c-0.6-1.2-1.2-2.5-1.9-3.7c-0.6-1.2-1.3-2.5-1.9-3.7l-0.3-0.5l0.4-0.4c1.2-1.2,2.3-2.5,3.3-3.8c1-1.3,2-2.7,2.8-4.2
		c0.4-0.7,0.7-1.5,0.9-2.3c0.1-0.4,0.2-0.8,0.1-1.1c0-0.1,0-0.2,0-0.2c0,0,0,0,0,0c0,0,0,0,0,0c0,0,0,0-0.1,0c-0.1,0-0.2,0-0.3,0.1
		c-0.8,0.3-1.5,0.7-2.2,1.1c-0.7,0.4-1.4,0.9-2.1,1.4c-1.4,1-2.7,2.1-4,3.2c-1.3,1.1-2.5,2.3-3.6,3.6c-2.3,2.5-4.3,5.3-5.9,8.2
		c-0.4,0.7-0.7,1.4-1.1,2.1l0,0c0,0,0,0,0,0C305.2,249.1,304.8,249.9,304.5,250.7z"/>
	<path id="XMLID_121_" class="st5" d="M371.7,216.9c2.1,2,4.3,4.2,6.5,6.7c5,0.5,8.7-3.4,9.5-7.4c0.2-1.3,0.6-5.6-4.3-6.6
		C375.4,207.8,372.4,214.9,371.7,216.9z M375.8,214.8c0.2-0.3,0.5-0.5,0.8-0.7c0.1-0.1,0.3-0.2,0.4-0.3c0.1-0.1,0.3-0.2,0.5-0.3
		c0.2-0.1,0.3-0.2,0.5-0.3l0.5-0.2c0.4-0.2,0.8-0.3,1.1-0.4c0.2-0.1,0.4-0.1,0.6-0.1c0.2,0,0.4-0.1,0.6-0.1c0.4,0,0.7,0,1.1,0
		c0.3,0,0.6,0.1,0.9,0.1c0.3,0.1,0.5,0.1,0.8,0.2c0.2,0.1,0.4,0.2,0.6,0.2c0.3,0.1,0.5,0.2,0.5,0.2s-0.2,0-0.5,0.1
		c-0.2,0-0.4,0-0.6,0.1c-0.2,0-0.5,0.1-0.7,0.1c-0.3,0-0.5,0.1-0.8,0.1c-0.3,0.1-0.6,0.1-0.9,0.2c-0.3,0.1-0.6,0.2-0.9,0.3
		c-0.3,0.1-0.6,0.2-0.9,0.4l-0.5,0.2c-0.1,0.1-0.3,0.2-0.4,0.2c-0.3,0.1-0.6,0.3-0.9,0.5c-0.3,0.2-0.5,0.3-0.8,0.5
		c-0.2,0.2-0.5,0.3-0.7,0.5c-0.2,0.2-0.4,0.3-0.6,0.4c-0.2,0.1-0.3,0.3-0.5,0.4c-0.3,0.2-0.4,0.3-0.4,0.3s0-0.2,0.2-0.5
		c0.1-0.2,0.1-0.3,0.2-0.6c0.1-0.2,0.2-0.4,0.4-0.7C375.4,215.3,375.6,215,375.8,214.8z"/>
	<path id="XMLID_116_" class="st5" d="M378.9,173c-23.6-21.9-46.9-25.8-62.4-25.3c-15,0.5-25.6,5.2-27.7,6.2
		c-3.4,23.4-4.7,44.3-5.1,50.3c5.8-2.9,11.4-4.4,16.7-4.4c0.1,0,0.2,0,0.3,0c4.7,0,7.9,1.3,9.7,2.2c1.4-3.9,6.9-6.7,13.7-6.7
		c2.2,0,4.2,0.3,6,0.8c0,0,4.4,1,7.4,5.3c0.2,0.4,0.3,0.8,0.4,1.1c1.9-0.3,5.8-0.6,11.1,0.8c5.1,1.3,12.4,4.5,20.8,11.9
		c0.9-2.3,2.7-5,5.4-6.7C374.8,195.8,376.5,183.6,378.9,173z M318.6,158.9c0,0-0.4,0-1,0c-0.2,0-0.3,0-0.5,0c-0.2,0-0.4,0-0.6,0
		c-0.4,0-0.9,0-1.4,0c-0.5,0-1,0-1.6,0.1c-0.3,0-0.6,0-0.9,0c-0.3,0-0.6,0-0.9,0c-0.3,0-0.6,0-0.9,0c-0.3,0-0.6,0-1,0
		c-0.7,0-1.3,0.1-2,0.2c-0.7,0.1-1.3,0.2-2,0.4c-0.7,0.2-1.3,0.3-1.9,0.5c-0.6,0.2-1.2,0.4-1.8,0.6c-0.6,0.2-1.1,0.4-1.6,0.6
		c-1,0.4-1.7,0.8-2.3,1c-0.5,0.3-0.8,0.4-0.8,0.4l-0.1-0.2c0,0,1.1-0.9,2.9-2c0.9-0.6,2-1.2,3.2-1.7c0.6-0.3,1.3-0.5,1.9-0.8
		c0.7-0.2,1.4-0.5,2.1-0.6c0.7-0.2,1.4-0.4,2.1-0.5c0.4-0.1,0.7-0.1,1.1-0.2c0.4-0.1,0.7-0.1,1-0.1c0.3,0,0.7,0,1,0
		c0.3,0,0.7,0.1,1,0.1c0.6,0.1,1.2,0.2,1.8,0.4c0.5,0.1,1,0.3,1.4,0.5c0.4,0.2,0.8,0.4,1,0.5c0.6,0.3,0.9,0.6,0.9,0.6L318.6,158.9z
		 M356.8,166.3c0,0-0.3-0.2-0.8-0.4c-0.5-0.3-1.3-0.6-2.3-1c-0.5-0.2-1-0.4-1.6-0.6c-0.6-0.2-1.2-0.4-1.8-0.6
		c-0.6-0.2-1.3-0.3-1.9-0.5c-0.7-0.1-1.3-0.3-2-0.4c-0.7-0.1-1.3-0.2-2-0.2c-0.3,0-0.7,0-1,0c-0.3,0-0.6,0-0.9,0c-0.3,0-0.6,0-0.9,0
		c-0.3,0-0.6,0-0.9,0c-0.6,0-1.1,0-1.6-0.1c-0.5,0-1,0-1.4,0c-0.2,0-0.4,0-0.6,0c-0.2,0-0.4,0-0.5,0c-0.6,0-1,0-1,0l-0.1-0.2
		c0,0,0.3-0.2,0.9-0.6c0.3-0.2,0.6-0.3,1-0.5c0.4-0.2,0.9-0.4,1.4-0.5c0.5-0.2,1.1-0.3,1.8-0.4c0.3,0,0.6-0.1,1-0.1c0.3,0,0.7,0,1,0
		c0.3,0,0.7,0.1,1,0.1c0.4,0.1,0.7,0.1,1.1,0.2c0.7,0.2,1.4,0.3,2.1,0.5c0.7,0.2,1.4,0.4,2.1,0.6c0.7,0.2,1.3,0.5,1.9,0.8
		c1.2,0.5,2.3,1.1,3.2,1.7c1.8,1.1,2.9,2,2.9,2L356.8,166.3z"/>
	<path id="XMLID_115_" class="st6" d="M290.4,132.9c0,0-17.1-7.6-26.5-24.7c-9.4-17.1,9.3-18.3,17.2-14.7
		c7.9,3.6,27.8,2.1,33.2-18.1c0,0,41,36.1,96.5,35.3c0,0-7.1,14.4,4.2,28.9c0,0,10.4,30.2-30.3,21.2l8.1-24.4
		c0,0-51.8-1.2-71.2-31.8C321.6,104.6,295.7,108.2,290.4,132.9z"/>
	<g id="XMLID_112_">
		<path id="XMLID_114_" class="st6" d="M439.6,197.5c10.3,32.2-16,56-46.6,57.3c-30.6,1.3-58.8-42.1-58.8-42.1
			c2.6-3.7,2.6-8.1,2.6-8.1l-1.3-1.6c0,0-5.8,5-12.3,5.5c-6.5,0.5-14.9-5.5-14.9-5.5s21.2,38.7-42.9,45.5
			c-62.9,6.7-59.5-45.2-59.4-47c-6,67.9,71.1,54.1,71.1,54.1l-1.3,6.5c10.3-0.4,19.1-3.5,26.3-7.5c1.4-4.6,7-19.9,23.3-26.5
			c0,0,0.1,0,0.3-0.1c0,0,0.1,0,0.1-0.1c0.3-0.1,0.8-0.3,1.4-0.6c0.1,0,0.2-0.1,0.3-0.1c0.1,0,0.1,0,0.2-0.1
			c0.7-0.3,1.3-0.5,1.9-0.8c0.4-0.2,0.8-0.3,1.2-0.5c0.4-0.2,0.7-0.3,1-0.4c0.4-0.2,0.8-0.3,1.1-0.4c0,0,0.1,0,0.1,0
			c0.1,0,0.1-0.1,0.2-0.1c0.1,0,0.2-0.1,0.2-0.1c0,0,0.1,0,0.1,0c0.1,0,0.2-0.1,0.3-0.1c0.1,0,0.2-0.1,0.2-0.1c0,0,0,0,0,0
			c0,0,0,0,0,0c0,0,0,0,0,0c0,0-0.1,0-0.2,0.1c-0.1,0-0.2,0.1-0.3,0.1c0,0-0.1,0-0.1,0c-0.1,0-0.1,0.1-0.2,0.1
			c-0.1,0-0.1,0.1-0.2,0.1c0,0-0.1,0-0.1,0c-0.3,0.1-0.7,0.3-1.1,0.4c-0.3,0.1-0.7,0.3-1,0.4c-0.4,0.2-0.8,0.3-1.2,0.5
			c-0.6,0.3-1.3,0.5-1.9,0.8c-0.1,0-0.1,0-0.2,0.1c-0.1,0-0.2,0.1-0.3,0.1c-0.4,0.2-0.9,0.4-1.4,0.6c-0.1,0-0.1,0-0.1,0.1
			c-0.1,0-0.2,0.1-0.3,0.1c0,0-0.7,2.4-2,7c-0.2,0.6-0.3,1.2-0.5,1.7c2.9-3.6,4.3-6,4.3-6c11,20.7,42.9,34,42.9,34v-7.8
			c6,4.4,24.8,9.2,47.3-1.6C461.1,234.6,439.6,197.5,439.6,197.5z"/>
		<path id="XMLID_113_" class="st6" d="M206,201.5C206,201.5,206,201.5,206,201.5C206,201.4,206,201.5,206,201.5z"/>
	</g>
	<path id="XMLID_111_" class="st5" d="M288.7,155.4c0,0,41.5-21.4,85.7,16.8c0,0-6.3,18.3-4.6,42.9l6.3-5.8c0,0,0.3-24.8,3.7-36.5
		c0,0-40.5-41.5-91-19.9V155.4z"/>
	<path id="XMLID_110_" class="st5" d="M373.4,219.1c0,0,3-8.6,11.2-6C392.9,215.7,377,224.3,373.4,219.1z"/>
	<path id="XMLID_109_" class="st5" d="M305,247.6c0,0,2.2,17.6,13.5,24.7c0,0-6.6-0.9-11-8.8c0,0,1,15.1-4.6,5.3
		C297.4,259,305,247.6,305,247.6z"/>
	<path id="XMLID_108_" class="st5" d="M253.1,183.8c0,0-13.1,18.5-16.4,18.5c-3.3,0-11.5-12.8-11.5-12.8s1.2,14.1,12.6,21.8
		C237.8,211.4,251.6,190.7,253.1,183.8z"/>
	<defs>
		<filter id="Adobe_OpacityMaskFilter" filterUnits="userSpaceOnUse" x="295.9" y="157.9" width="22.7" height="23.5">
			<feFlood  style="flood-color:white;flood-opacity:1" result="back"/>
			<feBlend  in="SourceGraphic" in2="back" mode="normal"/>
		</filter>
	</defs>
	<mask maskUnits="userSpaceOnUse" x="295.9" y="157.9" width="22.7" height="23.5" id="XMLID_6_">
		<g id="XMLID_70_" class="st7">
			<defs>
				<filter id="Adobe_OpacityMaskFilter_1_" filterUnits="userSpaceOnUse" x="295.9" y="157.9" width="22.7" height="23.5">
					<feFlood  style="flood-color:white;flood-opacity:1" result="back"/>
					<feBlend  in="SourceGraphic" in2="back" mode="normal"/>
				</filter>
			</defs>
			<mask maskUnits="userSpaceOnUse" x="295.9" y="157.9" width="22.7" height="23.5" id="XMLID_6_">
				<g id="XMLID_162_" class="st8">
				</g>
			</mask>
			<linearGradient id="XMLID_7_" gradientUnits="userSpaceOnUse" x1="307.2534" y1="180.7739" x2="307.2534" y2="162.9908">
				<stop  offset="1.075270e-02" style="stop-color:#000000"/>
				<stop  offset="1" style="stop-color:#FFFFFF"/>
			</linearGradient>
			<path id="XMLID_72_" class="st9" d="M295.9,181.4l1.4-18.7c0,0,10.8-7.1,20.9-4l0.5,0.2l-0.5,21.3L295.9,181.4z"/>
		</g>
	</mask>
	<linearGradient id="XMLID_8_" gradientUnits="userSpaceOnUse" x1="307.2534" y1="180.7739" x2="307.2534" y2="162.9908">
		<stop  offset="1.075270e-02" style="stop-color:#FEDBA8"/>
		<stop  offset="1" style="stop-color:#FEDBA8"/>
	</linearGradient>
	<path id="XMLID_107_" class="st10" d="M295.9,181.4l1.4-18.7c0,0,10.8-7.1,20.9-4l0.5,0.2l-0.5,21.3L295.9,181.4z"/>
	<defs>
		<filter id="Adobe_OpacityMaskFilter_2_" filterUnits="userSpaceOnUse" x="335.5" y="161.3" width="22.7" height="23.5">
			<feFlood  style="flood-color:white;flood-opacity:1" result="back"/>
			<feBlend  in="SourceGraphic" in2="back" mode="normal"/>
		</filter>
	</defs>
	<mask maskUnits="userSpaceOnUse" x="335.5" y="161.3" width="22.7" height="23.5" id="XMLID_9_">
		<g id="XMLID_63_" class="st11">
			<defs>
				<filter id="Adobe_OpacityMaskFilter_3_" filterUnits="userSpaceOnUse" x="335.5" y="161.3" width="22.7" height="23.5">
					<feFlood  style="flood-color:white;flood-opacity:1" result="back"/>
					<feBlend  in="SourceGraphic" in2="back" mode="normal"/>
				</filter>
			</defs>
			<mask maskUnits="userSpaceOnUse" x="335.5" y="161.3" width="22.7" height="23.5" id="XMLID_9_">
				<g id="XMLID_158_" class="st12">
				</g>
			</mask>
			
				<linearGradient id="XMLID_10_" gradientUnits="userSpaceOnUse" x1="183.1778" y1="184.199" x2="183.1778" y2="166.4158" gradientTransform="matrix(-1 0 0 1 530.008 0)">
				<stop  offset="1.075270e-02" style="stop-color:#000000"/>
				<stop  offset="1" style="stop-color:#FFFFFF"/>
			</linearGradient>
			<path id="XMLID_67_" class="st13" d="M358.2,184.8l-1.4-18.7c0,0-10.8-7.1-20.9-4l-0.5,0.2l0.5,21.3L358.2,184.8z"/>
		</g>
	</mask>
	
		<linearGradient id="XMLID_11_" gradientUnits="userSpaceOnUse" x1="183.1778" y1="184.199" x2="183.1778" y2="166.4158" gradientTransform="matrix(-1 0 0 1 530.008 0)">
		<stop  offset="1.075270e-02" style="stop-color:#FEDBA8"/>
		<stop  offset="1" style="stop-color:#FEDBA8"/>
	</linearGradient>
	<path id="XMLID_103_" class="st14" d="M358.2,184.8l-1.4-18.7c0,0-10.8-7.1-20.9-4l-0.5,0.2l0.5,21.3L358.2,184.8z"/>
	<path id="XMLID_32_" class="st3" d="M465.3,103.2c-4-3.6-11.1-12.9-19.3-23.6c-21.5-28.1-51-66.6-72.6-70
		c-13.8-2.2-40.8,0.2-67.4,10.5c-13.7,5.3-25.1,11.9-34,19.6c-10.4,8.9-17,19.2-19.7,30.4c-2.6,10.9-2.3,21.5,1,31.2
		c2.6,7.8,7.1,15.2,13.3,21.9c9.1,9.8,19.1,15.2,22,16.7c-5.1,29.4-6.9,58.6-7.3,64.7c-4.3-3.2-18.2-13.3-24.5-19.4l-1.6-1.3
		c1.6-2.8,3.9-9.3,2.7-12.2c-0.4-1.1-1.3-1.7-2.5-1.7c-3.8,0-6.9,6.7-8,9.7l-2-0.4c-0.5-2.9-1.9-9.5-5.2-11.6
		c-1.2-0.7-2.5-0.9-3.8-0.4c-1.2,0.4-2.1,1.2-2.6,2.4c-0.5,1.2-0.8,2.7-0.7,4.6c-0.4-0.3-0.7-0.5-1.1-0.7c-0.8-0.3-2.1-0.5-3.6,0.4
		c-2.5,1.7-3.1,5.4-1.5,11c-0.2,0-0.3-0.1-0.5-0.1c-1.5-0.1-2.4,0.8-2.6,1.1c-0.1,0.1-0.2,0.3-0.3,0.5l-0.1,0.3
		c0,0.1-0.1,0.2-0.1,0.4c-0.1,12.1,9.2,22,11.3,24.1c-0.5,0.5-1.1,0.9-1.6,1.3l-1.2,0.9l1.1,1c0.3,0.3,7.6,7.2,14.9,11.1
		c-11.1,3.5-21.5,3.1-28.6-1.2c-9.6-5.8-12.7-17.9-8.9-35.1l0-0.1l-2.4-0.7l0,0.1c-0.4,1-9.9,25.7,1.2,45.5
		c6.5,11.6,18.5,19,35.9,22.1c5.7,1,11.3,1.5,16.7,1.5c4.7,0,9.3-0.4,13.6-1.2c-1.4,8.8-6,39-5.6,65.4l0,0.6l0.5,0.4
		c0.2,0.2,5.7,4,16.9,7.4l1.3,6.1c-2.2-0.7-5.7-1.6-9.7-1.8c-9-0.4-16.6,2.9-22,9.6l-1.6,2l45.3,1.1l0.1,0l-5.1-14.9
		c8.8,1.9,18.5,2.9,28.8,2.9c6.8,0,13.9-0.4,21.1-1.3l-0.3,15.6l44.7-1.1l0.2,0l-1.6-2c-5.4-6.7-13.2-9.9-22.6-9.4
		c-5,0.3-9.1,1.5-11.2,2.3l-1.7-6.4c6.4-1,13-2.3,19.6-3.9l1-0.3l-0.1-1.1c-0.1-2-2.3-48.2-1.6-68.9c1.8,0.8,3.7,1.4,5.5,2
		c4.8,1.4,9.8,2.2,14.7,2.2c7.4,0,15-1.6,22.5-4.9c16.9-7.2,27.2-17.5,30.6-30.4c3.1-11.8-0.2-23.7-3.5-31.6
		c-3.6-8.5-7.9-14.1-8-14.4l-0.1-0.1l-2.1,1.5l0.1,0.1c11.6,17.8,3.8,33.2-7.3,41.6c-12,9.1-31.3,12.5-43.6,1.1
		c4.7-0.7,8.6-4.5,9.5-9.4c0.8-4.7-1.6-8.5-6.2-9.5c-2.2-0.5-4.3-0.4-6.2,0.2c-0.4-13.9,1.7-28.7,6.4-44.1c13.2,6.7,25.7,10,37.2,10
		c4,0,7.9-0.4,11.7-1.2c15.6-3.4,25-13,30.1-20.4C474.7,134.8,475.7,112.6,465.3,103.2z M260.6,343.8c4.7-4.7,10.8-7,18-6.7
		c6.2,0.3,11,2.4,11.1,2.4l2.3,1l-2-9.5c0.9,0.2,1.7,0.5,2.6,0.7l4.4,12.9L260.6,343.8z M397.1,131.6c0.2,0.2,0.4,0.3,0.6,0.5
		c0.2,0.1,0.3,0.3,0.5,0.4c0.3,0.3,0.7,0.6,1,0.8c0.2,0.1,0.3,0.3,0.5,0.4c0.5,0.4,1.1,0.7,1.6,1.1l1.6,1l0.2,0.1
		c0.5,0.3,1,0.5,1.4,0.8c0.4,0.2,0.8,0.4,1.2,0.6l0.3,0.2c0.4,0.2,0.9,0.4,1.3,0.5l0.2,0.1c0.1,0.1,0.3,0.1,0.4,0.2
		c0.3,0.1,0.7,0.3,1,0.4c0.9,0.3,1.8,0.6,2.6,0.7c0.7,0.2,1.4,0.3,2,0.4c0.4,0.1,0.7,0.1,1,0.2c0.1,0,0.2,0,0.3,0l1.1,0.2l-1-0.5
		c-0.1,0-0.2-0.1-0.3-0.1c-0.2-0.1-0.5-0.2-0.9-0.4c-0.3-0.1-0.7-0.3-1-0.5c-0.3-0.1-0.5-0.2-0.8-0.4c-0.5-0.2-1-0.5-1.5-0.7
		c-0.3-0.1-0.5-0.3-0.8-0.4c-0.3-0.1-0.6-0.3-0.9-0.5c-0.1-0.1-0.2-0.1-0.4-0.2c-0.1-0.1-0.3-0.2-0.4-0.2c-0.3-0.2-0.6-0.3-0.9-0.5
		c-0.2-0.1-0.4-0.2-0.6-0.3c-0.3-0.2-0.6-0.3-0.8-0.5l-1.5-0.9l-1.5-1l-1.4-1.1c-0.2-0.2-0.4-0.3-0.6-0.5c-0.3-0.2-0.6-0.5-0.9-0.7
		c-0.2-0.1-0.3-0.3-0.5-0.4c-0.3-0.3-0.6-0.5-0.9-0.8l-0.1-0.1c-0.4-0.4-0.8-0.8-1.2-1.2c-0.1-0.1-0.2-0.2-0.3-0.3
		c-0.1-0.1-0.2-0.2-0.3-0.4l-0.6-0.7c-0.2-0.2-0.4-0.5-0.6-0.7l-0.6-0.7c-0.1-0.2-0.3-0.4-0.4-0.6c-0.2-0.3-0.4-0.6-0.6-0.9
		c-0.7-1-1.3-1.9-1.9-2.8c-0.5-0.9-1-1.8-1.5-2.6c-0.5-1-0.8-1.7-1.1-2.3c-0.3-0.8-0.6-1.4-0.8-1.9l0-0.1l4.5-0.2l4.7-0.5
		c0.9-0.1,1.7-0.2,2.4-0.4c0.3-0.1,0.6-0.1,0.9-0.2l0.9-0.1c1.7-0.3,3.3-0.6,4.5-0.9c1-0.2,1.9-0.4,2.6-0.6c0.3-0.1,0.6-0.1,0.9-0.2
		l1.2-0.3l0-0.2l-1.2,0.2c-0.3,0-0.6,0.1-0.9,0.1c-0.7,0.1-1.6,0.2-2.6,0.4c-1,0.2-2.2,0.3-3.5,0.4c-0.6,0.1-1.2,0.1-1.9,0.2
		c-1.5,0.2-3.1,0.3-4.8,0.3c-0.7,0-1.4,0.1-2.2,0.1l-1,0.1l-1,0l-2,0l-2.1,0c-0.4,0-0.7,0-1.1,0l-4.5-0.2c-0.2,0-0.5,0-0.7-0.1
		c-0.1,0-0.3,0-0.4,0c-0.7-0.1-1.3-0.1-2-0.2c-0.9-0.1-1.8-0.2-2.7-0.3l-3.6-0.5c-0.4-0.1-0.8-0.1-1.2-0.2l-2.4-0.5
		c-0.3-0.1-0.5-0.1-0.8-0.2c-0.6-0.1-1.1-0.2-1.7-0.4l-3.7-0.9l-4.3-1.3l-1.8-0.7c-0.3-0.1-0.6-0.2-0.9-0.3c-0.5-0.2-1-0.4-1.5-0.6
		l-3.5-1.5c-0.2-0.1-0.5-0.2-0.7-0.3c-0.1-0.1-0.3-0.1-0.4-0.2l-2.3-1.1c-0.5-0.2-0.9-0.5-1.4-0.7c-0.3-0.2-0.6-0.3-0.9-0.5
		c-0.2-0.1-0.4-0.2-0.7-0.3c-0.5-0.3-1-0.5-1.5-0.8l-2.1-1.2c-0.3-0.2-0.6-0.4-1-0.6l-1-0.7c-2.5-1.6-4.9-3.3-7.5-5.4l-1.7-1.4
		c-0.3-0.3-0.6-0.5-0.9-0.8c-0.2-0.2-0.4-0.4-0.7-0.6c-0.8-0.6-1.5-1.3-2.2-1.9c-0.3-0.3-0.5-0.5-0.8-0.7c-0.3-0.3-0.6-0.6-0.9-0.9
		c-0.2-0.2-0.3-0.3-0.5-0.5c-0.4-0.4-0.9-0.8-1.3-1.3l-1.2-1.2l-1.1-1.2c-1.4-1.6-2.6-3-3.5-4.1c-0.8-1-1.6-2-2.1-2.8
		c-0.5-0.6-0.7-1-0.7-1l-0.2,0.1c0,0,0.2,0.4,0.6,1.1l0.1,0.1c0.4,0.7,1,1.7,1.8,2.9c1,1.5,2.1,3,3.2,4.4c1.2,1.6,2.8,3.4,4.7,5.4
		c1.4,1.5,3.6,3.7,6.1,5.8c0.4,0.4,0.8,0.7,1.2,1c0.2,0.1,0.4,0.3,0.5,0.4c0.2,0.2,0.4,0.3,0.6,0.5c0.4,0.3,0.8,0.6,1.2,0.9
		c1.1,0.8,2.5,1.9,3.9,2.8c2.6,1.8,5.5,3.5,8.7,5.2l2.3,1.1c0.1,0.1,0.3,0.1,0.4,0.2c0.3,0.1,0.5,0.2,0.8,0.4l3.6,1.5
		c0.5,0.2,1.1,0.4,1.6,0.6c0.3,0.1,0.6,0.2,0.9,0.3l1.9,0.7l4.4,1.3l3.8,0.9c1.2,0.3,2.4,0.5,3.5,0.7c0.5,0.1,1,0.2,1.5,0.3
		c0.4,0.1,0.8,0.1,1.3,0.2l3.9,0.5c0.1,0,0.3,0,0.4,0l4.2,0.3c0.1,0,0.3,0,0.4,0c0.2,0,0.5,0,0.8,0l4.6,0c0.4,0,0.7,0,1.1,0l0.1,0
		c0,0.1,0,0.2,0,0.2c0.1,0.6,0.2,1.3,0.4,2c0.2,0.9,0.4,1.7,0.7,2.6c0.3,0.9,0.7,1.8,1.2,3c0.5,0.9,1,2,1.7,3.1
		c0.7,1.1,1.4,2.1,2.2,3.1l0,0c0.4,0.5,0.8,0.9,1.2,1.4c-1.7,3.1-6.2,11.6-10.4,23.2c-2.1,5.7-3.9,11.5-5.3,17.3
		c-10.4-9.4-21.5-16.2-33.1-20.3c-9.7-3.4-19.7-5-29.9-4.6c-13.4,0.5-23.3,4.1-27.1,5.7c3.3-22.1,7.4-39.8,12.3-52.7
		c1.2-0.1,2.7-0.3,4.1-0.6l1.1-0.2l2-0.6l1.9-0.7l1.8-0.7c0.2-0.1,0.5-0.2,0.7-0.3l0.2-0.1c1-0.5,1.9-1,2.8-1.5l0.3-0.2l1.3-0.9
		c0.4-0.2,0.8-0.5,1.1-0.8c0.2-0.1,0.3-0.2,0.5-0.3c0.5-0.4,1-0.7,1.3-1.1c0.3-0.3,0.6-0.5,0.8-0.7c0.1-0.1,0.2-0.2,0.3-0.2l0.9-0.9
		l-1.1,0.6c-0.1,0.1-0.2,0.1-0.3,0.2c-0.3,0.1-0.6,0.3-0.9,0.5l-0.4,0.2l-0.5,0.2c-0.2,0.1-0.4,0.2-0.7,0.3
		c-0.1,0.1-0.3,0.1-0.4,0.2c-0.4,0.2-0.8,0.4-1.2,0.6l-1.4,0.6c-0.3,0.1-0.5,0.2-0.8,0.3c-0.8,0.3-1.5,0.6-2.4,0.9
		c-0.1,0-0.3,0.1-0.4,0.1c-0.2,0.1-0.3,0.1-0.5,0.2l-1.8,0.6l-1.9,0.5l-1.9,0.4l-1,0.2c-1.2,0.2-2.5,0.4-4.1,0.5
		c-0.3,0-0.6,0-0.8,0.1l-0.5-0.2l-0.1,0.2c-0.2,0-0.5,0-0.7,0c0,0,0,0,0,0c-0.3,0-0.6,0-0.8,0c-0.4,0-0.8,0-1.2,0
		c-1.4,0-2.8-0.1-4-0.2c-1.6-0.1-2.7-0.3-3.7-0.4c-1.2-0.2-2.4-0.4-3.3-0.6c-1-0.2-2-0.4-2.8-0.7l-0.5-0.1c-0.6-0.2-1.2-0.3-1.6-0.5
		l-0.2-0.1c-0.5-0.2-0.9-0.3-1.1-0.4l-1.1-0.4l0.5,0.4c0,0,0.6,0.4,1.7,1c1,0.5,2.6,1.4,4.8,2.2c1.2,0.4,2.3,0.8,3.4,1
		c1.1,0.3,2.4,0.6,3.9,0.8l0.3,0c0.6,0.1,1.2,0.2,1.8,0.2l1.1,0.1l1.1,0c0.4,0,0.7,0,1.1,0l0.7,0c-3.7,10.1-7.1,23.2-9.9,38.9
		c-3.6-1.9-12.5-7.1-20.6-15.8c-13.6-14.7-18.2-31.8-13.7-50.8c4.8-19.9,23.3-37,52.1-48.2C333,12.4,359.5,10.1,373,12.2
		c20.6,3.2,50.9,42.8,71,69c8.6,11.2,15.4,20.1,19.6,23.9c4.4,4,6.8,11.2,6.3,19.6c-0.4,8.7-3.6,17.8-8.9,25.5
		c-4.1,6-16.6,20.5-39.9,20.5c-10,0-22-2.7-36.2-9.9C389.5,146.3,394.9,135.6,397.1,131.6z M305.6,248.4L305.6,248.4L305.6,248.4
		c0.4-0.8,0.7-1.4,1.1-2.1c1.6-2.9,3.6-5.7,5.9-8.2c1.1-1.2,2.3-2.4,3.6-3.6c1.2-1.1,2.5-2.1,4-3.2c0.7-0.5,1.4-1,2.1-1.4
		c0.7-0.4,1.5-0.9,2.2-1.1c0.1,0,0.2-0.1,0.2-0.1c0,0,0,0.1,0,0.1c0,0.3,0,0.6-0.1,1.1c-0.2,0.8-0.6,1.7-0.9,2.3
		c-0.7,1.3-1.5,2.6-2.8,4.2c-1,1.2-2,2.5-3.3,3.8l-0.4,0.5l0.3,0.6c0.6,1.1,1.2,2.3,1.9,3.7l0.1,0.1c0.6,1.2,1.2,2.4,1.8,3.6
		c0.7,1.5,1.3,2.7,1.8,3.8c0.5,1.1,1.1,2.5,1.5,3.8c0.1,0.3,0.2,0.6,0.2,0.9c0.1,0.3,0.1,0.5,0.1,0.7c0,0-0.1,0-0.1,0
		c-0.3,0-0.9-0.2-1.4-0.4c-0.5-0.2-1.1-0.6-1.6-0.9c-1-0.7-2.1-1.6-3-2.5c-0.9-0.9-1.7-1.9-2.5-3.1l-5-7.3l2.6,8.4
		c0.8,2.5,1.5,5.1,2.2,7.6l0.5,1.7c0.5,1.6,0.9,3.1,1.3,4.6c0.2,0.7,0.4,1.5,0.6,2.3l0.1,0.6l0.1,0.5c0,0.1,0,0.1,0,0.2l0,0.2
		c0,0.1,0,0.1,0,0.2c0,0.1,0,0.2,0,0.2c0,0.2-0.1,0.4-0.3,0.6c-0.2,0.2-0.3,0.3-0.6,0.3c-0.5,0.1-1.1,0.1-1.9-0.1
		c-0.6-0.2-1.3-0.5-2-0.9c-0.6-0.4-1.2-0.8-1.8-1.4c-0.5-0.5-1-1-1.6-1.7c-0.6-0.7-1-1.3-1.4-1.9c-0.5-0.7-0.8-1.5-1.1-2.1
		c-0.1-0.2-0.2-0.4-0.3-0.7c-0.1-0.1-0.1-0.3-0.2-0.4l-1.1-2.8l0.2,1.8c0.2,1.8,0.4,3.5,0.5,5.1c0,0.9,0,1.7,0,2.5
		c0,0.8-0.1,1.6-0.4,2.3c0,0.1-0.1,0.1-0.1,0.2l0,0.1l-0.1,0.1c0,0,0,0-0.1,0.1c0,0,0,0,0,0l-0.2,0c0,0,0,0,0,0c0,0,0,0-0.1,0
		c0,0,0,0,0,0l-0.1,0c-0.1,0-0.2-0.1-0.4-0.1c-0.5-0.2-1-0.8-1.5-1.5c-0.4-0.6-0.7-1.2-1-2.1c-0.3-0.7-0.5-1.5-0.6-2.3
		c-0.3-1.5-0.4-3.1-0.3-4.9c0.1-1.6,0.3-3.2,0.7-4.9c0.4-1.6,0.9-3.2,1.4-4.8C304.9,250,305.2,249.2,305.6,248.4z M306.4,271.5
		L306.4,271.5L306.4,271.5L306.4,271.5z M282.2,271.6c3.9-5.5,13.9-14.7,19.7-19.9c0,0.1-0.1,0.2-0.1,0.3c0,0.1-0.1,0.3-0.1,0.4
		c-0.2,0.5-0.3,1.1-0.5,1.8c-2.6,2.5-15.6,14.9-18.3,19.9c-2.8,5.1-4.3,42.3-4.6,50.1c-0.3-0.1-0.5-0.2-0.8-0.4
		C277.3,316.2,277.2,278.5,282.2,271.6z M284.3,275c2.2-4,11.9-13.6,16.2-17.7c-0.2,1.1-0.3,2.1-0.3,3c-0.1,1.8,0.1,3.7,0.5,5.4
		c0.5,2,1.2,3.7,2.2,5.1c0.5,0.7,1.2,1.5,2.3,1.9c0.2,0.1,0.5,0.2,0.9,0.2c0.1,0,0.1,0,0.2,0c0.1,0,0.2,0,0.3,0l0.1,0
		c0,0,0.1,0,0.1,0l0.2-0.1c0,0,0.1,0,0.1,0l0,0l0.2-0.1c0.1,0,0.1-0.1,0.2-0.1c0.1-0.1,0.3-0.2,0.3-0.4l0.1-0.2l0.1-0.2
		c0.1-0.1,0.1-0.3,0.2-0.4c0.3-1,0.3-2,0.3-2.8c0-0.8-0.1-1.7-0.3-2.6c0-0.3-0.1-0.6-0.1-0.9c0.1,0.2,0.2,0.3,0.2,0.5
		c0.3,0.7,0.7,1.3,1.2,2.2c0.4,0.7,1,1.3,1.6,2c1.4,1.5,2.7,2.4,4.2,3c0.4,0.1,0.9,0.3,1.4,0.4c0.5,0.1,1,0.1,1.5,0
		c0.6-0.1,1.1-0.4,1.5-0.8c0.4-0.4,0.7-1,0.8-1.5c0.1-0.2,0.1-0.4,0.1-0.6c0-0.1,0-0.1,0-0.2l0-0.4c0-0.1,0-0.3,0-0.4l0,0
		c0.9,0.3,2.4,0.7,4.2,1.2c1.8,0.5,3.9,1.1,6.2,1.6c0.8,0.2,1.6,0.4,2.5,0.6l1,0.2c0.4,0.1,0.8,0.2,1.3,0.3c0.8,0.2,1.6,0.3,2.4,0.5
		c0.4,0.1,0.8,0.1,1.1,0.2c0.8,0.2,1.7,0.3,2.5,0.5l0.6,0.1c1,0.2,2,0.3,2.9,0.5l0.6,0.1c1,0.1,1.9,0.3,2.7,0.4
		c0.4,0,0.7,0.1,1.1,0.1c0.7,0.1,1.3,0.2,1.9,0.2l2.5,0.2c0.5,0,0.9,0.1,1.3,0.1c0.2,0,0.4,0,0.6,0l1.7,0.1l0-0.2l-1.7-0.2
		c-0.2,0-0.4,0-0.6-0.1c-0.4,0-0.8-0.1-1.3-0.2l-2.5-0.4c-0.6-0.1-1.2-0.2-1.8-0.3c-0.4-0.1-0.7-0.1-1.1-0.2
		c-0.9-0.2-1.8-0.3-2.7-0.5l-0.6-0.1c-0.9-0.2-1.9-0.4-2.8-0.6l-0.6-0.1c-0.8-0.2-1.6-0.4-2.4-0.6c-0.4-0.1-0.7-0.2-1.1-0.3
		c-0.8-0.2-1.5-0.4-2.3-0.6c-0.4-0.1-0.8-0.2-1.3-0.4l-1-0.3c-0.8-0.2-1.6-0.5-2.4-0.7c-2.2-0.7-4.2-1.4-6-2
		c-1.8-0.6-3.3-1.2-4.2-1.5l-1.2-0.4c-0.1-0.3-0.1-0.6-0.2-0.8c-0.3-1.5-0.7-3.1-1.1-4.7l-0.1-0.6c-0.1-0.6-0.3-1.2-0.4-1.8
		l-0.4-1.3c0.8,0.7,1.5,1.3,2.3,1.8c0.7,0.5,1.4,0.8,2,1.1c0.8,0.3,1.6,0.6,2.6,0.6c0.3,0,0.6-0.1,0.9-0.1c0.2-0.1,0.3-0.1,0.5-0.2
		l0.1,0c0.1,0,0.1-0.1,0.2-0.1c0.1-0.1,0.2-0.1,0.3-0.2l0.1-0.1l0.1-0.2c0.2-0.3,0.3-0.5,0.4-0.7c0.1-0.4,0.1-0.7,0.1-0.9
		c0-0.5-0.1-0.9-0.2-1.3c-0.1-0.3-0.2-0.7-0.3-1.1c-0.5-1.4-1.1-2.8-1.7-4c-0.6-1.2-1.2-2.4-1.9-3.8c-0.7-1.3-1.4-2.5-2-3.7
		c-0.6-1-1.2-2.1-1.8-3.1c1.1-1.3,2-2.5,2.7-3.7c0.1-0.2,0.3-0.4,0.4-0.7l0,0l0.5,0.3c1.2,0.7,2.6,1.6,4.1,2.4
		c2.1,1.2,4,2.3,5.8,3.2c0.7,0.4,1.4,0.7,2.1,1.1c0.4,0.2,0.8,0.4,1.2,0.6l3.5,1.7c0.4,0.2,0.8,0.4,1.2,0.6c0.7,0.4,1.5,0.7,2.3,1.1
		c0.4,0.2,0.8,0.4,1.2,0.6c0.8,0.4,1.5,0.7,2.2,1c0.4,0.2,0.8,0.3,1.1,0.5c0.7,0.3,1.4,0.6,2.1,0.9c0.4,0.1,0.7,0.3,1.1,0.4
		c0.6,0.3,1.2,0.5,1.8,0.7l2.5,0.9c0.5,0.2,0.9,0.3,1.3,0.5c0.2,0.1,0.4,0.1,0.6,0.2l1.7,0.5l0.1-0.2l-1.7-0.6
		c-0.2-0.1-0.4-0.1-0.6-0.2c-0.4-0.1-0.8-0.3-1.3-0.5l-2.4-1c-0.6-0.2-1.2-0.5-1.8-0.8c-0.3-0.2-0.7-0.3-1.1-0.5
		c-0.7-0.3-1.3-0.6-2-1c-0.4-0.2-0.7-0.4-1.1-0.6c-0.7-0.3-1.4-0.7-2.1-1.1c-0.4-0.2-0.8-0.4-1.2-0.6c-0.7-0.4-1.4-0.8-2.2-1.2
		c-0.4-0.2-0.8-0.4-1.2-0.7l-3.3-1.9c-0.4-0.2-0.8-0.5-1.1-0.7c-0.7-0.4-1.4-0.8-2-1.2c-1.7-1.1-3.6-2.2-5.6-3.5
		c-1.4-0.9-2.8-1.8-3.9-2.6l-0.6-0.4c0.4-0.7,0.6-1.2,0.9-1.8c0.4-0.9,0.7-1.7,0.9-2.5c0.1-0.4,0.2-0.9,0.1-1.5
		c0-0.2-0.1-0.3-0.1-0.4c0-0.1-0.1-0.2-0.2-0.3c0,0,0,0-0.1-0.1l0,0c0,0,0,0,0,0l0,0l0,0c0,0-0.1-0.1-0.1-0.1l-0.1,0
		c0,0-0.1,0-0.2-0.1l-0.1,0c-0.1,0-0.1,0-0.2,0c-0.1,0-0.1,0-0.2,0l0,0c-0.1,0-0.3,0.1-0.4,0.1c-0.9,0.3-1.6,0.8-2.4,1.2
		c-0.7,0.4-1.4,0.9-2.2,1.5c-1.5,1.1-2.9,2.2-4.1,3.2c-1.2,1-2.5,2.2-3.9,3.5c-2.8,2.7-5,5.4-6.7,8c-0.5,0.8-1.1,1.8-1.6,2.7
		c-4.1,3.6-17.7,15.7-22.7,22.6c-5.2,7.3-5.2,44.6-5.1,52.5c-1.6-0.8-2.7-1.5-3.3-1.8c-0.3-27.4,4.7-58.9,5.7-65.2
		c2.5-0.6,4.9-1.2,7.2-2c9.7-3.4,18-8.9,24.8-16.3c8.4-9.2,12.6-19.5,12.5-25.1c0.6,0,1.1,0.1,1.6,0.1c0.9,0,1.7,0,2.6-0.1
		c1.6,3.1,9.6,18.5,23,31.3c6.3,6,12.9,10.7,19.7,14c-0.8,18.9,1.1,60.7,1.5,69.1c-34.8,8.3-59.8,6.3-74.6,3.1
		c-5.9-1.3-11.4-2.9-16.3-5C280.5,309.4,282.1,279.1,284.3,275z M375.2,208.4c-3.1,1.9-4.7,4.9-5.4,6.6c-8.6-7.5-16-10.5-20.7-11.8
		c-3.1-0.8-5.8-1.1-7.8-1.1c-1.4,0-2.4,0.1-3.2,0.2c-0.1-0.4-0.2-0.7-0.4-1.1c-3-4.2-7.4-5.3-7.5-5.3c-1.9-0.5-3.9-0.8-6.1-0.8
		c-6.7,0-12.3,2.7-13.8,6.7c-1.9-1-5.1-2.1-9.6-2.2l-0.3,0c-5.2,0-10.8,1.5-16.6,4.3c0.4-6.1,1.7-26.9,5.1-50.1
		c2.1-1,12.7-5.7,27.6-6.2c15.4-0.5,38.7,3.4,62.3,25.3C376,185.3,374.7,197.3,375.2,208.4z M324.1,197.8c6.3,0,11.6,2.8,11.6,6.2
		c0,3.3-5.3,6.2-11.6,6.2s-11.6-2.8-11.6-6.2C312.5,200.6,317.8,197.8,324.1,197.8z M310,204.6c0.5,3.6,4.4,6.6,10,7.6
		c0.3,4-3.1,14.2-11.8,23.7c-8.5,9.3-27.9,24-62.6,17.8c-16.6-3-28.1-10-34.1-20.8c-3.9-7-5.6-15.6-4.8-25.5
		c1.3,10.9,6.9,16.5,11.4,19.2c4.2,2.6,9.6,3.9,15.6,3.9c12.3,0,26.2-5.5,37.3-14.7c13.4-11.2,23.5-13.5,29.6-13.5
		C305.6,202.3,308.8,203.9,310,204.6z M338.2,205c1.4-0.2,5.2-0.6,10.5,0.8c6.5,1.7,16.6,6.6,28,19.8c12.6,14.5,34.9,12.1,49.1,1.3
		c6.8-5.2,11.6-12,13.3-19.3c0.7-3.1,1-6.2,0.6-9.4c3,7.4,5.9,18.3,3,28.9c-3.2,12.2-13,21.8-29.1,28.7
		c-21.9,9.4-42.8,4.7-62.2-13.9c-12.3-11.8-20-25.8-22.2-29.9C334.2,210.9,337.6,208.2,338.2,205z M371.9,216.9
		c0.8-2.2,3.8-8.9,11.5-7.2c4.9,1.1,4.5,5.3,4.3,6.5c-0.7,4-4.4,7.8-9.3,7.4C376.2,221.1,374,218.9,371.9,216.9z M239.5,216.6
		c0.3-0.3,0.7-0.6,1.1-1l0.7-0.7l0.8-0.8c0.4-0.4,0.8-0.8,1.2-1.2c0.2-0.2,0.4-0.4,0.6-0.6l1-1.2c0.3-0.3,0.5-0.6,0.8-1l0.9-1.1
		c0.2-0.3,0.4-0.5,0.6-0.8c0.1-0.1,0.2-0.3,0.3-0.4c0.1-0.1,0.2-0.3,0.3-0.4c0.2-0.3,0.4-0.5,0.6-0.8l0.8-1.3
		c0.4-0.6,0.7-1.2,1.1-1.8c0.2-0.3,0.3-0.5,0.5-0.8c0-0.1,0.1-0.2,0.1-0.2c0.1-0.1,0.2-0.3,0.2-0.4l1-2c0-0.1,0.1-0.1,0.1-0.2
		c0.1-0.1,0.1-0.3,0.2-0.4l0.8-1.9c0.3-0.7,0.5-1.4,0.8-2l0.1-0.3c0.1-0.3,0.2-0.5,0.3-0.7c0.2-0.4,0.3-0.8,0.4-1.2l0.8-2.9
		l-0.2-0.1l-1,2.8c-0.1,0.4-0.3,0.8-0.5,1.2c-0.1,0.2-0.2,0.5-0.3,0.7l-0.1,0.3c-0.3,0.6-0.5,1.2-0.9,1.9l-0.9,1.8
		c-0.1,0.1-0.1,0.3-0.2,0.4l-1.2,2c-0.1,0.1-0.2,0.3-0.3,0.4c0,0.1-0.1,0.1-0.1,0.2c-0.2,0.3-0.3,0.5-0.5,0.8
		c-0.4,0.6-0.8,1.1-1.2,1.7l-0.9,1.2c-0.2,0.3-0.4,0.5-0.6,0.7c-0.1,0.1-0.2,0.3-0.3,0.4c-0.1,0.1-0.2,0.3-0.3,0.4
		c-0.2,0.2-0.4,0.5-0.6,0.7l-1,1c-0.3,0.3-0.6,0.6-0.8,0.9l-1,1c-0.2,0.2-0.4,0.4-0.6,0.5c-0.4,0.4-0.8,0.7-1.2,1.1l-0.6,0.5
		l-0.9,0.7c-0.4,0.3-0.8,0.6-1.1,0.9l-0.1,0.1c-0.2,0.1-0.3,0.2-0.5,0.3c-0.6-0.5-1.1-1-1.7-1.4c8.6-7.2,16-22.7,18.1-27.5l1.1,0.9
		c6.3,6.1,19.1,15.5,24.4,19.4c-3.3,2-6.8,4.5-10.3,7.4c-5.4,4.5-11.6,8.2-18,10.6C247.1,222.6,242.6,219.2,239.5,216.6L239.5,216.6
		z M231,191.4c0.2-0.1,0.4-0.3,0.5-0.6c0.1-0.3,0.1-0.6-0.1-0.9c-2.3-5.3-4.2-12-1.6-13.7c0.6-0.4,0.9-0.3,1.2-0.2
		c1,0.4,2,1.9,3,4.2c0.6,1.5,1,2.4,1.5,3.3c0.2,0.4,0.4,0.8,0.6,1.2c0.2,0.3,0.4,0.5,0.7,0.5c0.3,0,0.6-0.1,0.8-0.4
		c0.2-0.3,0.3-0.6,0.2-1c-0.3-1.1-0.8-2.7-1.3-4.4c-1.1-3.3-1.2-6.9-0.4-8.8c0.3-0.6,0.6-0.9,1.1-1.1c0.6-0.2,1.1-0.2,1.6,0.2
		c2.2,1.4,3.6,7,4.1,10.1l-0.1,0.1c-0.3,0.4-0.8,0.9-1.3,1.6c-1.3,1.5-2.7,3.4-3.8,5c-0.6,0.9-1.3,1.8-1.9,2.8
		c-0.3,0.5-0.6,0.9-0.8,1.3c-0.2,0.4-0.5,0.8-0.7,1.2l-0.6,1l-0.8,1.5l0.2,0.1l1-1.3l0.7-0.9c0.2-0.3,0.5-0.7,0.9-1.1
		c0.3-0.3,0.6-0.8,1-1.2c0.7-0.9,1.5-1.7,2.2-2.5c1.4-1.5,2.9-3.1,4.4-4.4c0.6-0.6,1.2-1.1,1.5-1.4l4.4,0.8l0.4-1
		c1.3-3.8,4.2-9.1,6-9.1c0,0,0.1,0,0.1,0c0,0,0,0,0.1,0.1c0.8,1.8-1.1,7.5-2.4,9.8c-0.1,0.2-8.1,18.3-16.6,27.1
		c-1.9-1.9-10.5-11.1-10.6-21.9c0.1,0,0.2-0.1,0.3-0.1l0,0c0.9,0,1.9,1.1,2.9,3C229.3,190.9,230.1,191.7,231,191.4z M347.7,347
		l0.3-13.3c0.8-0.1,1.5-0.2,2.3-0.3l2.5,9.3l0,0.1l1.4-0.6c0.2-0.1,18.5-7.8,30.4,3.9L347.7,347z"/>
	<path id="XMLID_31_" class="st3" d="M316.8,157.6c-0.4-0.2-0.9-0.4-1.4-0.5c-0.5-0.2-1.1-0.3-1.8-0.4c-0.3,0-0.6-0.1-1-0.1
		c-0.3,0-0.7,0-1,0c-0.3,0-0.7,0.1-1,0.1c-0.4,0.1-0.7,0.1-1.1,0.2c-0.7,0.2-1.4,0.3-2.1,0.5c-0.7,0.2-1.4,0.4-2.1,0.6
		c-0.7,0.2-1.3,0.5-1.9,0.8c-1.2,0.5-2.3,1.1-3.2,1.7c-1.8,1.1-2.9,2-2.9,2l0.1,0.2c0,0,0.3-0.2,0.8-0.4c0.5-0.3,1.3-0.6,2.3-1
		c0.5-0.2,1-0.4,1.6-0.6c0.6-0.2,1.2-0.4,1.8-0.6c0.6-0.2,1.3-0.3,1.9-0.5c0.7-0.1,1.3-0.3,2-0.4c0.7-0.1,1.3-0.2,2-0.2
		c0.3,0,0.7,0,1,0c0.3,0,0.6,0,0.9,0c0.3,0,0.6,0,0.9,0c0.3,0,0.6,0,0.9,0c0.6,0,1.1,0,1.6-0.1c0.5,0,1,0,1.4,0c0.2,0,0.4,0,0.6,0
		c0.2,0,0.4,0,0.5,0c0.6,0,1,0,1,0l0.1-0.2c0,0-0.3-0.2-0.9-0.6C317.6,158,317.2,157.8,316.8,157.6z"/>
	<path id="XMLID_30_" class="st3" d="M336.5,162.4c0.2,0,0.3,0,0.5,0c0.2,0,0.4,0,0.6,0c0.4,0,0.9,0,1.4,0c0.5,0,1,0,1.6,0.1
		c0.3,0,0.6,0,0.9,0c0.3,0,0.6,0,0.9,0c0.3,0,0.6,0,0.9,0c0.3,0,0.6,0,1,0c0.7,0,1.3,0.1,2,0.2c0.7,0.1,1.3,0.2,2,0.4
		c0.7,0.2,1.3,0.3,1.9,0.5c0.6,0.2,1.2,0.4,1.8,0.6c0.6,0.2,1.1,0.4,1.6,0.6c1,0.4,1.7,0.8,2.3,1c0.5,0.3,0.8,0.4,0.8,0.4l0.1-0.2
		c0,0-1.1-0.9-2.9-2c-0.9-0.6-2-1.2-3.2-1.7c-0.6-0.3-1.3-0.5-1.9-0.8c-0.7-0.2-1.4-0.5-2.1-0.6c-0.7-0.2-1.4-0.4-2.1-0.5
		c-0.4-0.1-0.7-0.1-1.1-0.2c-0.4-0.1-0.7-0.1-1-0.1c-0.3,0-0.7,0-1,0c-0.3,0-0.7,0.1-1,0.1c-0.6,0.1-1.2,0.2-1.8,0.4
		c-0.5,0.1-1,0.3-1.4,0.5c-0.4,0.2-0.8,0.4-1,0.5c-0.6,0.3-0.9,0.6-0.9,0.6l0.1,0.2C335.5,162.4,335.9,162.4,336.5,162.4z"/>
	<path id="XMLID_29_" class="st3" d="M374.6,216.8c-0.1,0.3-0.2,0.5-0.2,0.5s0.1-0.1,0.4-0.3c0.1-0.1,0.3-0.2,0.5-0.4
		c0.2-0.1,0.4-0.3,0.6-0.4c0.2-0.2,0.4-0.3,0.7-0.5c0.2-0.2,0.5-0.3,0.8-0.5c0.3-0.1,0.6-0.3,0.9-0.5c0.1-0.1,0.3-0.1,0.4-0.2
		l0.5-0.2c0.3-0.2,0.6-0.2,0.9-0.4c0.3-0.1,0.6-0.2,0.9-0.3c0.3-0.1,0.6-0.1,0.9-0.2c0.3-0.1,0.6-0.1,0.8-0.1c0.3,0,0.5-0.1,0.7-0.1
		c0.2,0,0.4,0,0.6-0.1c0.3,0,0.5-0.1,0.5-0.1s-0.2-0.1-0.5-0.2c-0.2-0.1-0.3-0.2-0.6-0.2c-0.2-0.1-0.5-0.1-0.8-0.2
		c-0.3-0.1-0.6-0.1-0.9-0.1c-0.3,0-0.7,0-1.1,0c-0.2,0-0.4,0-0.6,0.1c-0.2,0-0.4,0.1-0.6,0.1c-0.4,0.1-0.8,0.2-1.1,0.4l-0.5,0.2
		c-0.2,0.1-0.3,0.2-0.5,0.3c-0.2,0.1-0.3,0.2-0.5,0.3c-0.2,0.1-0.3,0.2-0.4,0.3c-0.3,0.2-0.5,0.5-0.8,0.7c-0.2,0.3-0.4,0.5-0.6,0.8
		c-0.2,0.2-0.3,0.5-0.4,0.7C374.7,216.4,374.6,216.6,374.6,216.8z"/>
	<path id="XMLID_23_" class="st3" d="M293.2,269.9c-2.1,0-3.8,1.7-3.8,3.8c0,2.1,1.7,3.8,3.8,3.8c2.1,0,3.8-1.7,3.8-3.8
		C297,271.6,295.3,269.9,293.2,269.9z M293.2,275.1c-0.8,0-1.4-0.6-1.4-1.4c0-0.8,0.6-1.4,1.4-1.4c0.8,0,1.4,0.6,1.4,1.4
		C294.7,274.5,294,275.1,293.2,275.1z"/>
	<path id="XMLID_20_" class="st3" d="M287.5,296.2c-2.1,0-3.8,1.7-3.8,3.8c0,2.1,1.7,3.8,3.8,3.8c2.1,0,3.8-1.7,3.8-3.8
		C291.3,297.9,289.6,296.2,287.5,296.2z M287.5,301.4c-0.8,0-1.4-0.6-1.4-1.4c0-0.8,0.6-1.4,1.4-1.4c0.8,0,1.4,0.6,1.4,1.4
		C289,300.8,288.3,301.4,287.5,301.4z"/>
	<path id="XMLID_16_" class="st3" d="M319.3,298.2c-2.1,0-3.8,1.7-3.8,3.8s1.7,3.8,3.8,3.8c2.1,0,3.8-1.7,3.8-3.8
		S321.4,298.2,319.3,298.2z M319.3,303.4c-0.8,0-1.4-0.6-1.4-1.4s0.6-1.4,1.4-1.4c0.8,0,1.4,0.6,1.4,1.4S320.1,303.4,319.3,303.4z"
		/>
	<path id="XMLID_4_" class="st3" d="M321.3,272.6c-2.1,0-3.8,1.7-3.8,3.8s1.7,3.8,3.8,3.8c2.1,0,3.8-1.7,3.8-3.8
		S323.3,272.6,321.3,272.6z M321.3,277.8c-0.8,0-1.4-0.6-1.4-1.4c0-0.8,0.6-1.4,1.4-1.4c0.8,0,1.4,0.6,1.4,1.4
		C322.7,277.2,322,277.8,321.3,277.8z"/>
	<g id="XMLID_1_">
		<path id="XMLID_3_" class="st3" d="M306,180.8c-2.2,0-3.9,2.6-3.9,6.1c0,3.5,1.7,6.1,3.9,6.1c2.2,0,3.9-2.6,3.9-6.1
			C309.9,183.5,308.2,180.8,306,180.8z"/>
		<path id="XMLID_2_" class="st3" d="M349.1,184.8c-2.2,0-3.9,2.6-3.9,6.1c0,3.5,1.7,6.1,3.9,6.1c2.2,0,3.9-2.6,3.9-6.1
			C353,187.4,351.3,184.8,349.1,184.8z"/>
	</g>
</g>
<rect x="10.2" y="107.5" class="st15" width="242.7" height="61.9"/>
<text transform="matrix(1 0 0 1 10.2432 158.7935)" class="st16 st17 st18">Cuisine moi </text>
</svg>
